<svg id="Layer_1" data-name="Layer 1" xmlns="http://www.w3.org/2000/svg" viewBox="0 0 248 252">
  <title>eco</title>
  <g id="Layer_2" data-name="Layer 2">
    <rect x="55.8" y="39.3" width="58.8" height="106.05" transform="translate(-44.3 85.3) rotate(-45)" fill="#90fc95"/>
    <path d="M143.5,109,116.2,81.7h-83l68.7,68.8Z" transform="translate(-4 -2)" fill="#52e355"/>
    <path d="M101.9,152.6a2,2,0,0,1-1.4-.6l-75-75a1.9,1.9,0,0,1,0-2.8h0L67.1,32.6a2.1,2.1,0,0,1,2.9,0l75,75a2.1,2.1,0,0,1,0,2.8h0L103.3,152A1.7,1.7,0,0,1,101.9,152.6Zm-72.1-77,72.1,72.1L140.7,109,68.5,36.8Z" transform="translate(-4 -2)" fill="#2fb1ea"/>
    <path d="M120.7,116.6l-11.1,11.1a10.9,10.9,0,0,0-15.3,0L49.8,83.2a10.7,10.7,0,0,0,0-15.2L60.9,56.8a10.7,10.7,0,0,0,15.3,0l44.5,44.6a10.5,10.5,0,0,0-.6,15A.6.6,0,0,0,120.7,116.6Z" transform="translate(-4 -2)" fill="#ffe76e"/>
    <path d="M94.3,127.7a10.9,10.9,0,0,1,15.3,0l11.1-11.1a10.7,10.7,0,0,1,0-15.2L101,81.7H51.1l-1.3,1.5Z" transform="translate(-4 -2)" fill="#ffc444"/>
    <path d="M109.6,129.7h0a2,2,0,0,1-1.5-.6,8.8,8.8,0,0,0-12.4,0,1.9,1.9,0,0,1-2.8,0L48.4,84.6a1.9,1.9,0,0,1,0-2.8h0a8.8,8.8,0,0,0,0-12.4,1.9,1.9,0,0,1,0-2.8h0L59.5,55.4a1.9,1.9,0,0,1,2.8,0h0a8.9,8.9,0,0,0,12.5,0,1.9,1.9,0,0,1,2.8,0h0L122.1,100a1.9,1.9,0,0,1,0,2.8h0a8.8,8.8,0,0,0,0,12.4,2.1,2.1,0,0,1,0,2.9h0l-11.1,11A2,2,0,0,1,109.6,129.7Zm-7.7-7.1a12.4,12.4,0,0,1,7.5,2.4l8.6-8.5a12.6,12.6,0,0,1,0-15L76,59.6a12.9,12.9,0,0,1-15,0l-8.5,8.5a12.9,12.9,0,0,1,0,15L94.4,125a12.6,12.6,0,0,1,7.5-2.4Z" transform="translate(-4 -2)" fill="#2fb1ea"/>
    <circle cx="81.2" cy="90.3" r="10.9" fill="#cbecf9"/>
    <path d="M85.2,105.2a13,13,0,1,1,9.2-3.8h0A12.6,12.6,0,0,1,85.2,105.2Zm0-21.9a9,9,0,1,0,6.4,15.3h0a9,9,0,0,0,0-12.6A9.1,9.1,0,0,0,85.2,83.3ZM93,100Z" transform="translate(-4 -2)" fill="#2fb1ea"/>
    <rect x="97.7" y="62.9" width="106.1" height="58.82" transform="translate(-25.1 131.6) rotate(-45)" fill="#90fc95"/>
    <path d="M134.1,150.6l68.7-68.8h-83L92.5,109Z" transform="translate(-4 -2)" fill="#52e355"/>
    <path d="M134.1,152.6a2,2,0,0,1-1.5-.6L91.1,110.4a1.9,1.9,0,0,1,0-2.8h0l75-75a1.9,1.9,0,0,1,2.8,0l41.6,41.6a1.9,1.9,0,0,1,0,2.8h0l-75,75A2,2,0,0,1,134.1,152.6ZM95.3,109l38.8,38.8,72.1-72.2L167.5,36.8Z" transform="translate(-4 -2)" fill="#2fb1ea"/>
    <path d="M115.3,116.6l11.1,11.1a10.9,10.9,0,0,1,15.3,0l44.5-44.5a10.7,10.7,0,0,1,0-15.2L175.1,56.8a10.7,10.7,0,0,1-15.3,0l-44.5,44.6A10.7,10.7,0,0,1,115.3,116.6Z" transform="translate(-4 -2)" fill="#ffe76e"/>
    <path d="M115.3,116.6l11.1,11.1a10.9,10.9,0,0,1,15.3,0l44.5-44.5-1.3-1.5H135l-19.7,19.7A10.7,10.7,0,0,1,115.3,116.6Z" transform="translate(-4 -2)" fill="#ffc444"/>
    <path d="M141.7,129.7h0a1.8,1.8,0,0,1-1.4-.6,8.8,8.8,0,0,0-12.4,0,2.1,2.1,0,0,1-2.9,0L113.9,118a1.9,1.9,0,0,1,0-2.8h0a8.8,8.8,0,0,0,0-12.4,2.1,2.1,0,0,1,0-2.9h0l44.5-44.5a1.9,1.9,0,0,1,2.8,0h.1a8.7,8.7,0,0,0,12.3,0,2.1,2.1,0,0,1,2.9,0h0l11.1,11.1a2.1,2.1,0,0,1,0,2.9h0a8.8,8.8,0,0,0,0,12.4,1.9,1.9,0,0,1,0,2.8h0l-44.5,44.5A2,2,0,0,1,141.7,129.7ZM118,116.5l8.5,8.5a12.9,12.9,0,0,1,15,0l42-41.9a12.6,12.6,0,0,1,0-15L175,59.6a12.9,12.9,0,0,1-15,0l-42,41.9a12.9,12.9,0,0,1,0,15Z" transform="translate(-4 -2)" fill="#2fb1ea"/>
    <circle cx="146.8" cy="90.3" r="10.9" fill="#cbecf9"/>
    <path d="M150.8,105.2a12.6,12.6,0,0,1-9.2-3.8h0a13,13,0,1,1,18.4,0A13.2,13.2,0,0,1,150.8,105.2Zm-6.4-6.6a9,9,0,0,0,12.7,0,8.9,8.9,0,0,0,0-12.6,9,9,0,0,0-12.7,0h0A9.1,9.1,0,0,0,144.4,98.6Z" transform="translate(-4 -2)" fill="#2fb1ea"/>
    <rect x="84.6" y="32" width="58.8" height="106.05" fill="#90fc95"/>
    <rect x="84.6" y="79.7" width="58.8" height="58.38" fill="#52e355"/>
    <path d="M147.4,142H88.6a2,2,0,0,1-2-2V34a2,2,0,0,1,2-2h58.8a2,2,0,0,1,2,2V140A2,2,0,0,1,147.4,142Zm-56.8-4h54.8V36H90.6Z" transform="translate(-4 -2)" fill="#2fb1ea"/>
    <path d="M125.9,129.3H110.1a10.7,10.7,0,0,0-10.7-10.8v-63a10.7,10.7,0,0,0,10.7-10.8h15.8a10.7,10.7,0,0,0,10.7,10.8v63A10.7,10.7,0,0,0,125.9,129.3Z" transform="translate(-4 -2)" fill="#ffe76e"/>
    <path d="M110.1,129.3h15.8a10.7,10.7,0,0,1,10.7-10.8h0V81.7H99.4v36.8A10.7,10.7,0,0,1,110.1,129.3Z" transform="translate(-4 -2)" fill="#ffc444"/>
    <path d="M125.9,131.3H110.1a2,2,0,0,1-2-2,8.7,8.7,0,0,0-8.7-8.8,2,2,0,0,1-2-2v-63a2,2,0,0,1,2-2,8.7,8.7,0,0,0,8.7-8.8,2,2,0,0,1,2-2h15.8a2,2,0,0,1,2,2,8.7,8.7,0,0,0,8.7,8.8,2,2,0,0,1,2,2v63a2,2,0,0,1-2,2,8.7,8.7,0,0,0-8.7,8.8A2,2,0,0,1,125.9,131.3Zm-13.9-4h12a12.7,12.7,0,0,1,10.6-10.6V57.4A13,13,0,0,1,124,46.8H112a13,13,0,0,1-10.6,10.6v59.3A12.7,12.7,0,0,1,112,127.3Z" transform="translate(-4 -2)" fill="#2fb1ea"/>
    <circle cx="114" cy="85" r="10.9" fill="#fff"/>
    <path d="M118,98a10.9,10.9,0,0,0,10.9-10.9,10.1,10.1,0,0,0-1.4-5.4h-19a10.9,10.9,0,0,0,4.1,14.9A11.4,11.4,0,0,0,118,98Z" transform="translate(-4 -2)" fill="#cbecf9"/>
    <path d="M118,100a13,13,0,1,1,12.9-13A12.9,12.9,0,0,1,118,100Zm0-21.9a9,9,0,1,0,8.9,9h0a8.9,8.9,0,0,0-8.9-8.9Z" transform="translate(-4 -2)" fill="#2fb1ea"/>
    <rect x="20" y="89.7" width="188" height="130.33" rx="12" ry="12" fill="#a4ecff"/>
    <rect x="20" y="105.3" width="188" height="99.11" fill="#6dd0fc"/>
    <path d="M200,224H36a14,14,0,0,1-14-14V103.7a14,14,0,0,1,14-14H200a14,14,0,0,1,14,14V210A14,14,0,0,1,200,224ZM36,93.7a10,10,0,0,0-10,10V210a10,10,0,0,0,10,10H200a10,10,0,0,0,10-10V103.7a10,10,0,0,0-10-10Z" transform="translate(-4 -2)" fill="#2fb1ea"/>
    <rect x="20" y="112" width="188" height="85.67" fill="#cbecf9"/>
    <rect x="20" y="119.1" width="188" height="71.56" fill="#fff"/>
    <path d="M212,201.7H24a2,2,0,0,1-2-2V114a2,2,0,0,1,2-2H212a2,2,0,0,1,2,2v85.7A2,2,0,0,1,212,201.7Zm-186-4H210V116H26Z" transform="translate(-4 -2)" fill="#2fb1ea"/>
    <rect x="178" y="137.7" width="50" height="34.25" rx="6" ry="6" fill="#52e355"/>
    <rect x="178" y="137.7" width="50" height="27.94" rx="5.4" ry="5.4" fill="#90fc95"/>
    <path d="M226,176H188a8,8,0,0,1-8-8V145.7a8,8,0,0,1,8-8h38a8,8,0,0,1,8,8V168A8,8,0,0,1,226,176Zm-38-34.2a3.9,3.9,0,0,0-4,4V168a4,4,0,0,0,4,4h38a4,4,0,0,0,4-4V145.7a4,4,0,0,0-4-4Z" transform="translate(-4 -2)" fill="#2fb1ea"/>
    <circle cx="129" cy="5" r="5" fill="#d4ffd4"/>
    <circle cx="4" cy="126" r="4" fill="#d4ffd4"/>
    <circle cx="111" cy="246" r="3" fill="#d4ffd4"/>
    <circle cx="246" cy="187" r="2" fill="#d4ffd4"/>
    <circle cx="202" cy="238" r="1" fill="#d4ffd4"/>
    <circle cx="147" cy="237" r="5" fill="#ffbdbd"/>
    <circle cx="242" cy="221" r="4" fill="#ffbdbd"/>
    <circle cx="103" cy="17" r="3" fill="#ffbdbd"/>
    <circle cx="193" cy="22" r="2" fill="#ffbdbd"/>
    <circle cx="236" cy="83" r="1" fill="#ffbdbd"/>
    <circle cx="18" cy="43" r="5" fill="#bbf1ff"/>
    <circle cx="62" cy="231" r="4" fill="#bbf1ff"/>
    <circle cx="220" cy="27" r="3" fill="#bbf1ff"/>
    <circle cx="14" cy="223" r="2" fill="#bbf1ff"/>
    <circle cx="25" cy="206" r="1" fill="#bbf1ff"/>
    <circle cx="215" cy="74" r="5" fill="#fff4c5"/>
    <circle cx="173" cy="248" r="4" fill="#fff4c5"/>
    <circle cx="9" cy="173" r="3" fill="#fff4c5"/>
    <circle cx="45" cy="40" r="2" fill="#fff4c5"/>
    <circle cx="234" cy="129" r="1" fill="#fff4c5"/>
  </g>
</svg>
