<svg id="Layer_1" data-name="Layer 1" xmlns="http://www.w3.org/2000/svg" viewBox="0 0 96.2 95">
  <title>newspaper</title>
  <path d="M26.4,28C20.2,32.1-15,71.9,24.1,88.9s75.7,1.5,68-55.9S32.7,23.8,26.4,28Z" transform="translate(-1.8 -2.5)" fill="#5aff93"/>
  <path d="M37.8,83.6l-2.4-4-.7.6-.7.9h0a1.5,1.5,0,1,1-2.6-1.4,6.7,6.7,0,0,1,2.4-2.6h.1L32.6,75l-1,.9a15.6,15.6,0,0,1-2,1.6A1.5,1.5,0,1,1,27.9,75l2-1.6.7-.6.4-.3-1.1-1.6-.2.2-1,.7a18,18,0,0,0-2,1.9,1.5,1.5,0,0,1-2.3-1.9,14.2,14.2,0,0,1,2.5-2.4l1-.8h.2L27,66.9l-1.2.9A25,25,0,0,0,23.4,70a1.5,1.5,0,0,1-2.2-2,14.2,14.2,0,0,1,2.9-2.6l1.2-.8-1.7-2.2a1,1,0,0,1-.4.5l-.6.5-3,2.6h0a1.5,1.5,0,0,1-1.9-2.3l3.2-2.8.3-.3a1.1,1.1,0,0,1,.7-.3l-1.3-1.6-.4.3-.6.3a20.4,20.4,0,0,0-4,3.1h-.1a1.5,1.5,0,0,1-2-2.2,24.6,24.6,0,0,1,4.4-3.4l.8-.5-1.8-2.2c-.1.2-.3.3-.5.5h0a13.9,13.9,0,0,0-3.7,3.1h0a1.5,1.5,0,1,1-2.3-1.9,15.8,15.8,0,0,1,4.4-3.7h.3l-2-2.2-1.6-1.7L5.8,52.9a3.2,3.2,0,0,0-1.1,2.4,3.7,3.7,0,0,0,.7,2,288.2,288.2,0,0,0,34,34.1,13.1,13.1,0,0,0,2.8,2l.9.4q-1.5-3.3-3.3-6.6Z" transform="translate(-1.8 -2.5)" fill="none"/>
  <path d="M94.4,50c-1.5-3.3-8.1-17.1-21.7-33.6-2.1-2.6-5-5.9-8.6-9.7A4,4,0,0,0,59,6.1c-9.8,6.1-19.9,12.8-30.2,20.2-5.7,4.1-11.1,8.2-16.3,12.2l-.3.3a3.9,3.9,0,0,0-.1,5.5A183.8,183.8,0,0,1,40.4,82.1c2.3,4,4.3,7.9,6.1,11.8A220.8,220.8,0,0,0,85.7,65.8c2.5-2.2,4.9-4.5,7.1-6.7a8.2,8.2,0,0,0,2.4-5.7,6.8,6.8,0,0,0-.8-3.4ZM84.2,46a1.5,1.5,0,0,1-.3,2.1l-7.1,5.3A1.5,1.5,0,0,1,75,51l7.1-5.3A1.6,1.6,0,0,1,84.2,46ZM61.3,13.5ZM42.2,25.6a1.5,1.5,0,0,1,2.1.1A76.9,76.9,0,0,1,54.5,39.5c-.2-4-.4-7.9-.5-11.9a.9.9,0,0,1,.1-.5,1.4,1.4,0,0,1,1.8-1,35.6,35.6,0,0,0,6.5,1.3c-.5-2.8-1-5.6-1.7-8.4L60,20.9a1.6,1.6,0,0,1-.2,1.2,1,1,0,0,1-.6.5,1.7,1.7,0,0,1-1.7-.1,1.8,1.8,0,0,1-.5-.7,1.9,1.9,0,0,1,0-1.2l1.6-4.7a4.7,4.7,0,0,1,.5-1,2.4,2.4,0,0,1,1-1,2.7,2.7,0,0,1,1.2-.3h.1a2.3,2.3,0,0,1,1.1.3l.6.4L67,17.2a1.4,1.4,0,0,1,.3,2,1.6,1.6,0,0,1-2.1.4l-1.7-1.3A96.3,96.3,0,0,1,65.6,29v.3A1.6,1.6,0,0,1,64,30.7a58.1,58.1,0,0,1-7.1-1.1l.6,13.1c5.6-3.5,11-7.2,16.3-11.1h0A1.5,1.5,0,0,1,75.6,34c-6.1,4.6-12.5,8.8-19,12.8h-.1a1.6,1.6,0,0,1-2-.7A71.2,71.2,0,0,0,42.1,27.9h0A1.7,1.7,0,0,1,42.2,25.6Zm15.3-3.1ZM18.7,43.8a1.5,1.5,0,0,1,.1-2.1,98.7,98.7,0,0,1,17-12.4h.1a1.5,1.5,0,0,1,1.3,2.7,92.8,92.8,0,0,0-16.5,12A1.4,1.4,0,0,1,18.7,43.8Zm5.2,5.1A1.5,1.5,0,1,1,22,46.6c5.3-4.5,10.8-8.8,16.4-12.9h.1a1.5,1.5,0,0,1,1.7,2.5c-5.6,3.9-11,8.2-16.3,12.7Zm1.5,3.9a1.6,1.6,0,0,1,.3-2.1L43.5,37.6A1.5,1.5,0,1,1,45.3,40L27.5,53.1A1.5,1.5,0,0,1,25.4,52.8Zm3.4,4.9a1.5,1.5,0,0,1,.2-2.1A138.3,138.3,0,0,1,47.2,42.4a1.5,1.5,0,0,1,1.5,2.5A141.6,141.6,0,0,0,30.9,57.8,1.5,1.5,0,0,1,28.8,57.7Zm4.3,4a1.5,1.5,0,0,1,.1-2.1,124,124,0,0,1,17.5-13,1.5,1.5,0,1,1,1.5,2.5A111.4,111.4,0,0,0,35.1,61.8,1.4,1.4,0,0,1,33.1,61.7Zm6,7a1.5,1.5,0,0,1,.4-2.1Q59,53,78.1,38.9a1.5,1.5,0,0,1,1.8,2.4C67.1,50.7,54.2,60,41.2,69A1.6,1.6,0,0,1,39.1,68.7ZM71,57.7a49.3,49.3,0,0,0-8.6,5.7h-.1a1.5,1.5,0,0,1-1.9-2.3,55.6,55.6,0,0,1,9.1-6.1h0a1.5,1.5,0,0,1,2,.6A1.3,1.3,0,0,1,71,57.7ZM44.1,75.6a1.6,1.6,0,0,1,.2-2.1c3.7-2.7,7.5-5.2,11.3-7.7h0a1.5,1.5,0,0,1,1.5,2.5L45.9,75.9C45.5,76.4,44.6,76.2,44.1,75.6Zm2.1,5a1.5,1.5,0,0,1,.3-2.1A78.6,78.6,0,0,1,59,70.4,1.5,1.5,0,0,1,60.4,73a73.4,73.4,0,0,0-12.1,7.8A1.5,1.5,0,0,1,46.2,80.6Zm16-2.4a74.1,74.1,0,0,0-11.8,8h0a1.5,1.5,0,1,1-1.9-2.3,74.2,74.2,0,0,1,12.3-8.4h0a1.5,1.5,0,0,1,2,.6A1.6,1.6,0,0,1,62.2,78.2Zm.9-9.7a1.5,1.5,0,0,1,0-2.1,34.5,34.5,0,0,1,9.5-6.6,1.6,1.6,0,0,1,2,.7,1.4,1.4,0,0,1-.7,2,31.1,31.1,0,0,0-8.7,6.1A1.5,1.5,0,0,1,63.1,68.5Zm13.4-1.6a59.5,59.5,0,0,0-8.4,6.6H68a1.5,1.5,0,1,1-2-2.2,65.9,65.9,0,0,1,8.8-7h0a1.6,1.6,0,0,1,2.1.4A1.5,1.5,0,0,1,76.5,66.9Zm2.7-8.6a1.5,1.5,0,0,1-2.1-.1h0a1.5,1.5,0,0,1,.1-2.1,54.3,54.3,0,0,1,8.1-6.2,1.5,1.5,0,0,1,1.5,2.5,55.1,55.1,0,0,0-7.6,5.9Zm10.3-1.4a72.6,72.6,0,0,0-7.8,5.9h0a1.5,1.5,0,0,1-2.1-.2h0a1.5,1.5,0,0,1,.2-2.1,95.3,95.3,0,0,1,8.1-6.1,1.6,1.6,0,0,1,2.1.4A1.8,1.8,0,0,1,89.5,56.9Z" transform="translate(-1.8 -2.5)" fill="none"/>
  <path d="M97.2,48.8h0C95.6,45.3,88.9,31.3,75,14.5c-2.2-2.6-5.1-6-8.7-9.8a7.1,7.1,0,0,0-8.9-1.1C47.6,9.7,37.4,16.5,27,24c-5.7,4.1-11.2,8.2-16.4,12.3a6.8,6.8,0,0,0-1.2,9.6h0L4,50.5a6.2,6.2,0,0,0-.8,8.6A279.5,279.5,0,0,0,37.4,93.7a19.9,19.9,0,0,0,3.3,2.4,7.8,7.8,0,0,0,4.1,1.2h.1l.3.2a1.7,1.7,0,0,0,1.2-.1A220.8,220.8,0,0,0,87.5,68.1c2.5-2.3,4.9-4.5,7.2-6.8A11.1,11.1,0,0,0,98,53.4,9,9,0,0,0,97.2,48.8Zm-55,44.7a28.3,28.3,0,0,1-2.8-2A281.6,281.6,0,0,1,5.5,57.2a3.1,3.1,0,0,1-.7-2,3.2,3.2,0,0,1,1.1-2.4l5.7-4.7,1.6,1.7,2,2.2h-.3a17.3,17.3,0,0,0-4.4,3.7,1.5,1.5,0,0,0,2.3,1.9h0a12.3,12.3,0,0,1,3.7-3.1h0l.5-.5,1.8,2.2-.8.5a24.6,24.6,0,0,0-4.4,3.4,1.5,1.5,0,1,0,2,2.2h.1a23.8,23.8,0,0,1,4-3.1l.6-.3.4-.3L22,60.2a1.5,1.5,0,0,0-.7.3l-.3.3-3.2,2.8a1.5,1.5,0,0,0,1.9,2.3h0l3-2.6.6-.5a1,1,0,0,0,.4-.5l1.7,2.2-1.2.8-2.9,2.6a1.5,1.5,0,0,0,2.2,2,17,17,0,0,1,2.4-2.2l1.2-.9,1.1,1.6H28l-1,.8a18.8,18.8,0,0,0-2.5,2.4,1.5,1.5,0,0,0,2.3,1.9,12.1,12.1,0,0,1,2-1.9l1-.7.2-.2,1.1,1.6c-.1.1-.3.1-.4.3l-.7.6a15.6,15.6,0,0,1-2,1.6,1.5,1.5,0,0,0,1.7,2.5,15.6,15.6,0,0,0,2-1.6l1-.9L34,77h-.1a8.5,8.5,0,0,0-2.4,2.6A1.5,1.5,0,1,0,34.1,81h0a3.1,3.1,0,0,1,.7-.9l.7-.6,2.4,4,2,3.7q1.8,3.3,3.3,6.6A2.9,2.9,0,0,1,42.2,93.5ZM92.8,59.1c-2.3,2.2-4.6,4.5-7.1,6.7A218,218,0,0,1,46.4,93.9c-1.8-3.8-3.8-7.8-6.1-11.8A183.8,183.8,0,0,0,12,44.3a3.8,3.8,0,0,1,.1-5.5l.3-.3c5.2-4.1,10.6-8.1,16.3-12.2C39.1,18.9,49.2,12.2,59,6.1a4.1,4.1,0,0,1,5.1.6c3.6,3.8,6.5,7.1,8.6,9.7C86.4,32.9,92.9,46.7,94.4,50h0a7.5,7.5,0,0,1,.7,3.3A7.7,7.7,0,0,1,92.8,59.1Z" transform="translate(-1.8 -2.5)"/>
  <path d="M38,29.8a1.6,1.6,0,0,0-2-.7h-.1a98.7,98.7,0,0,0-17,12.4,1.5,1.5,0,0,0,2,2.2,92.8,92.8,0,0,1,16.5-12A1.4,1.4,0,0,0,38,29.8Z" transform="translate(-1.8 -2.5)"/>
  <path d="M40.6,34.1a1.5,1.5,0,0,0-2.1-.4h-.1C32.7,37.8,27.3,42.1,22,46.6a1.5,1.5,0,1,0,1.9,2.3h0c5.2-4.5,10.6-8.7,16.2-12.7A1.5,1.5,0,0,0,40.6,34.1Z" transform="translate(-1.8 -2.5)"/>
  <path d="M45.7,38a1.5,1.5,0,0,0-2.1-.3L25.8,50.8a1.5,1.5,0,1,0,1.8,2.4L45.4,40.1A1.6,1.6,0,0,0,45.7,38Z" transform="translate(-1.8 -2.5)"/>
  <path d="M49.2,42.8a1.5,1.5,0,0,0-2-.5A138.3,138.3,0,0,0,29,55.5a1.5,1.5,0,1,0,1.9,2.3A132.2,132.2,0,0,1,48.7,44.9,1.6,1.6,0,0,0,49.2,42.8Z" transform="translate(-1.8 -2.5)"/>
  <path d="M52.8,47.1a1.5,1.5,0,0,0-2-.5,116.7,116.7,0,0,0-17.5,13,1.5,1.5,0,0,0,2,2.2A118.4,118.4,0,0,1,52.4,49.1,1.5,1.5,0,0,0,52.8,47.1Z" transform="translate(-1.8 -2.5)"/>
  <path d="M80.1,39.2a1.5,1.5,0,0,0-2-.3C65.4,48.3,52.5,57.6,39.5,66.6a1.5,1.5,0,1,0,1.7,2.5c13-9.1,25.9-18.3,38.6-27.8A1.5,1.5,0,0,0,80.1,39.2Z" transform="translate(-1.8 -2.5)"/>
  <path d="M57.3,68.3a1.5,1.5,0,1,0-1.5-2.5h0L44.5,73.5a1.4,1.4,0,0,0-.2,2.1,1.5,1.5,0,0,0,2,.3C49.8,73.3,53.5,70.8,57.3,68.3Z" transform="translate(-1.8 -2.5)"/>
  <path d="M60.3,73a1.5,1.5,0,0,0-1.4-2.6,78.6,78.6,0,0,0-12.5,8.1,1.5,1.5,0,0,0,1.8,2.4A86.6,86.6,0,0,1,60.3,73Z" transform="translate(-1.8 -2.5)"/>
  <path d="M60.8,75.5h0a79.5,79.5,0,0,0-12.4,8.4,1.5,1.5,0,0,0,1.9,2.3h0a78.9,78.9,0,0,1,11.8-8,1.5,1.5,0,0,0,.6-2A1.3,1.3,0,0,0,60.8,75.5Z" transform="translate(-1.8 -2.5)"/>
  <path d="M69.7,55h0a49.9,49.9,0,0,0-9.1,6.1,1.4,1.4,0,0,0-.2,2.1,1.4,1.4,0,0,0,2.1.2h.1a45.8,45.8,0,0,1,8.6-5.7,1.5,1.5,0,0,0,.6-2A1.6,1.6,0,0,0,69.7,55Z" transform="translate(-1.8 -2.5)"/>
  <path d="M74.6,60.4a1.6,1.6,0,0,0-2-.7,36.8,36.8,0,0,0-9.5,6.6,1.5,1.5,0,0,0,2.1,2.1,33.3,33.3,0,0,1,8.7-6.1A1.4,1.4,0,0,0,74.6,60.4Z" transform="translate(-1.8 -2.5)"/>
  <path d="M74.9,64.4h0a58.8,58.8,0,0,0-8.8,7,1.5,1.5,0,1,0,2,2.2h.1a53,53,0,0,1,8.4-6.6,1.5,1.5,0,0,0,.4-2.1A1.5,1.5,0,0,0,74.9,64.4Z" transform="translate(-1.8 -2.5)"/>
  <path d="M74.8,53.1a1.5,1.5,0,0,0,2.1.3L84,48.1a1.5,1.5,0,1,0-1.8-2.4L75.1,51A1.5,1.5,0,0,0,74.8,53.1Z" transform="translate(-1.8 -2.5)"/>
  <path d="M87.3,50.4a1.5,1.5,0,0,0-2-.5,54.3,54.3,0,0,0-8.1,6.2,1.5,1.5,0,0,0-.1,2.1h0a1.5,1.5,0,0,0,2.1.1h0a54.2,54.2,0,0,1,7.7-5.9A1.4,1.4,0,0,0,87.3,50.4Z" transform="translate(-1.8 -2.5)"/>
  <path d="M87.8,54.4a95.3,95.3,0,0,0-8.1,6.1,1.6,1.6,0,0,0-.2,2.1h0a1.6,1.6,0,0,0,2.1.2h0a88.7,88.7,0,0,1,7.8-5.9,1.5,1.5,0,0,0,.4-2.1A1.5,1.5,0,0,0,87.8,54.4Z" transform="translate(-1.8 -2.5)"/>
  <line x1="59.5" y1="11" x2="59.5" y2="11" fill="none"/>
  <path d="M57.5,22.5Z" transform="translate(-1.8 -2.5)"/>
  <path d="M42.1,27.8A71.2,71.2,0,0,1,54.5,46.1a1.5,1.5,0,0,0,2,.7h.1c6.5-4,12.9-8.3,19-12.8a1.5,1.5,0,1,0-1.8-2.4h0c-5.3,3.9-10.7,7.6-16.3,11.1l-.6-13.1A42,42,0,0,0,64,30.6a1.5,1.5,0,0,0,1.6-1.4v-.3c-.5-3.6-1.3-7.2-2.1-10.7l1.7,1.3a1.5,1.5,0,0,0,2.1-.4,1.4,1.4,0,0,0-.3-2l-4-2.9-.6-.4a2,2,0,0,0-1.1-.3h-.1a2.7,2.7,0,0,0-1.2.3,3.2,3.2,0,0,0-1,1,9.3,9.3,0,0,0-.5,1l-1.6,4.7a1.8,1.8,0,0,0,0,1.2,1.8,1.8,0,0,0,.5.7,1.5,1.5,0,0,0,1.7.1l.6-.5a1.7,1.7,0,0,0,.2-1.2l.6-1.9a83.3,83.3,0,0,1,1.7,8.4A46.7,46.7,0,0,1,55.7,26a1.4,1.4,0,0,0-1.8,1c0,.2-.1.3-.1.5.2,4,.3,7.9.5,11.9A72.4,72.4,0,0,0,44.1,25.6a1.5,1.5,0,0,0-2.1-.1,2,2,0,0,0,.1,2.3Z" transform="translate(-1.8 -2.5)"/>
</svg>
