<svg id="Layer_1" data-name="Layer 1" xmlns="http://www.w3.org/2000/svg" viewBox="0 0 251 244">
  <title>sport</title>
  <g id="Layer_2" data-name="Layer 2">
    <circle cx="108.6" cy="122" r="84" fill="#f97171"/>
    <circle cx="105.5" cy="119" r="78.7" fill="#f88"/>
    <path d="M111.1,214a86,86,0,1,1,86-86A86,86,0,0,1,111.1,214Zm0-168a82,82,0,1,0,82,82A82,82,0,0,0,111.1,46Z" transform="translate(-2.5 -6)" fill="#2fb1ea"/>
    <path d="M111.1,192a64,64,0,1,1,64-64A64,64,0,0,1,111.1,192Z" transform="translate(-2.5 -6)" fill="#fff"/>
    <path d="M111.1,194a66,66,0,1,1,66-66A65.9,65.9,0,0,1,111.1,194Zm0-128a62,62,0,1,0,62,62A62,62,0,0,0,111.1,66Z" transform="translate(-2.5 -6)" fill="#2fb1ea"/>
    <path d="M111.1,172a44,44,0,1,1,44-44A44,44,0,0,1,111.1,172Z" transform="translate(-2.5 -6)" fill="#f88"/>
    <path d="M111.1,174a46,46,0,1,1,46-46A46,46,0,0,1,111.1,174Zm0-88a42,42,0,1,0,42,42h0A42,42,0,0,0,111.1,86Z" transform="translate(-2.5 -6)" fill="#2fb1ea"/>
    <path d="M111.1,152a24,24,0,1,1,24-24A23.9,23.9,0,0,1,111.1,152Z" transform="translate(-2.5 -6)" fill="#fff"/>
    <path d="M111.1,154a26,26,0,1,1,26-26A25.9,25.9,0,0,1,111.1,154Zm0-48a22,22,0,1,0,22,22A21.9,21.9,0,0,0,111.1,106Z" transform="translate(-2.5 -6)" fill="#2fb1ea"/>
    <circle cx="108.6" cy="122" r="4" fill="#f88"/>
    <path d="M111.1,134a6,6,0,0,1,0-12,6,6,0,0,1,0,12Zm0-8a2,2,0,1,0,2,2A2,2,0,0,0,111.1,126Z" transform="translate(-2.5 -6)" fill="#2fb1ea"/>
    <path d="M226.9,112.5H204.3a1.9,1.9,0,0,0-1,.3L188.1,122H138.6l2-3.6a1.9,1.9,0,0,0-.7-2.7,1.7,1.7,0,0,0-1.7-.1l-25.9,10.6a2,2,0,0,0-1.1,2.6,2.3,2.3,0,0,0,1.1,1.1l25.9,10.5a2.1,2.1,0,0,0,2.6-1.1,1.7,1.7,0,0,0-.2-1.7l-2-3.6h49.5l15.2,9.2a1.9,1.9,0,0,0,1,.3h22.6a2,2,0,0,0,2-2,1.7,1.7,0,0,0-.6-1.4l-12-12.1,12-12.1a1.9,1.9,0,0,0,0-2.8A1.7,1.7,0,0,0,226.9,112.5Z" transform="translate(-2.5 -6)" fill="#6dd0fc"/>
    <path d="M226.9,112.5H204.3a1.9,1.9,0,0,0-1,.3L188.1,122H138.6l2-3.6a1.9,1.9,0,0,0-.7-2.7,1.7,1.7,0,0,0-1.7-.1l-25.9,10.6c-1.7.6,2.8-.9,4.4-.2l13.4,5.6a2,2,0,0,0,2.6-1.1,1.9,1.9,0,0,0-.1-1.8l55.5-.4,15.2,9.2a1.9,1.9,0,0,0,1,.3h18.8a2,2,0,0,0,2-2,2,2,0,0,0-.6-1.4l-8.2-6.4,12-12.1a1.9,1.9,0,0,0,0-2.8A1.7,1.7,0,0,0,226.9,112.5Z" transform="translate(-2.5 -6)" fill="#a4ecff"/>
    <path d="M226.9,145.5H204.3a3.6,3.6,0,0,1-2-.6L187.5,136H142l.3.6a3.9,3.9,0,0,1-1.4,5.4,4.1,4.1,0,0,1-3.6.3l-25.8-10.6a4.1,4.1,0,0,1-2.2-5.2,4,4,0,0,1,2.2-2.2l25.9-10.6a4,4,0,0,1,5.2,2.2,3.9,3.9,0,0,1-.2,3.5l-.4.6h45.5l14.7-8.9a4.2,4.2,0,0,1,2.1-.6h22.6a4,4,0,0,1,4,4,3.6,3.6,0,0,1-1.2,2.8L219.1,128l10.7,10.6a4.2,4.2,0,0,1,0,5.7,4,4,0,0,1-2.9,1.2ZM138.6,132h49.5a1.9,1.9,0,0,1,1,.3l15.2,9.2h22.6l-12-12.1a2,2,0,0,1-.1-2.8h.1l12-12.1H204.3l-15.2,9.2a1.9,1.9,0,0,1-1,.3H138.6a2,2,0,0,1-2-2,3,3,0,0,1,.2-1l2.1-3.6L113.1,128l25.8,10.6-2.1-3.6a2,2,0,0,1,.8-2.7,1.7,1.7,0,0,1,1-.3Z" transform="translate(-2.5 -6)" fill="#2fb1ea"/>
    <circle cx="188" cy="182" r="5" fill="#d4ffd4"/>
    <circle cx="168" cy="32" r="4" fill="#d4ffd4"/>
    <circle cx="221" cy="203" r="3" fill="#d4ffd4"/>
    <circle cx="18" cy="82" r="2" fill="#d4ffd4"/>
    <circle cx="196" cy="40" r="1" fill="#d4ffd4"/>
    <circle cx="124" cy="5" r="5" fill="#ffbdbd"/>
    <circle cx="4" cy="118" r="4" fill="#ffbdbd"/>
    <circle cx="232" cy="94" r="3" fill="#ffbdbd"/>
    <circle cx="51" cy="208" r="2" fill="#ffbdbd"/>
    <circle cx="230" cy="63" r="1" fill="#ffbdbd"/>
    <circle cx="246" cy="124" r="5" fill="#bbf1ff"/>
    <circle cx="57" cy="28" r="4" fill="#bbf1ff"/>
    <circle cx="24" cy="178" r="3" fill="#bbf1ff"/>
    <circle cx="165" cy="215" r="2" fill="#bbf1ff"/>
    <circle cx="206" cy="77" r="1" fill="#bbf1ff"/>
    <circle cx="136" cy="239" r="5" fill="#fff4c5"/>
    <circle cx="84" cy="229" r="4" fill="#fff4c5"/>
    <circle cx="193" cy="63" r="3" fill="#fff4c5"/>
    <circle cx="94" cy="12" r="2" fill="#fff4c5"/>
    <circle cx="22" cy="46" r="1" fill="#fff4c5"/>
  </g>
</svg>
