<svg id="Layer_1" data-name="Layer 1" xmlns="http://www.w3.org/2000/svg" viewBox="0 0 210 251">
  <title>exdu</title>
  <g id="Layer_2" data-name="Layer 2">
    <path d="M104,182h48v28a12,12,0,0,1-12,12H116a12,12,0,0,1-12-12V182Z" transform="translate(-23 -2.5)" fill="#6dd0fc"/>
    <path d="M104,188.7v15.1a12,12,0,0,0,12,12h18.7a12,12,0,0,0,12-12V188.7Z" transform="translate(-23 -2.5)" fill="#a4ecff"/>
    <path d="M140,224H116a14,14,0,0,1-14-14V182a2,2,0,0,1,2-2h48a2,2,0,0,1,2,2v28A14,14,0,0,1,140,224Zm-34-40v26a10,10,0,0,0,10,10h24a10,10,0,0,0,10-10V184Z" transform="translate(-23 -2.5)" fill="#2fb1ea"/>
    <rect x="70.3" y="162.9" width="69.4" height="16.58" rx="4" ry="4" fill="#cbecf9"/>
    <rect x="70.3" y="162.9" width="64.4" height="10.58" rx="4" ry="4" fill="#fff"/>
    <path d="M158.7,184H97.3a6,6,0,0,1-6-6v-8.6a6,6,0,0,1,6-6h61.4a6,6,0,0,1,6,6V178A6,6,0,0,1,158.7,184ZM97.3,167.4a2,2,0,0,0-2,2V178a2,2,0,0,0,2,2h61.4a2,2,0,0,0,2-2v-8.6a2,2,0,0,0-2-2Z" transform="translate(-23 -2.5)" fill="#2fb1ea"/>
    <path d="M187.9,91.2A59.8,59.8,0,0,1,158,146a12,12,0,0,0-6,10.4v9.1H104v-9.1A12,12,0,0,0,98,146a60,60,0,1,1,89.9-54.8Z" transform="translate(-23 -2.5)" fill="#ffc444"/>
    <circle cx="101.9" cy="87.2" r="55.2" fill="#ffe76e"/>
    <path d="M169.1,86a4,4,0,0,0-4,4v11.1a4,4,0,0,1-4,4H160a12,12,0,0,0-12,12v.2a3.7,3.7,0,0,1-2.2,3.5v-1.3a10.9,10.9,0,0,0-10.9-10.9,2.9,2.9,0,0,1-2.9-2.9h0V93.6a10.9,10.9,0,0,0-10.9-10.9,2.9,2.9,0,0,1-2.9-2.9h0V74a2.9,2.9,0,0,1,2.9-2.9h0a10.7,10.7,0,0,0,10.1-6.9h2.6a4,4,0,0,1,4,4v.7a4,4,0,0,0,8,0v-.7a12.2,12.2,0,0,0-3-8,12.4,12.4,0,0,0,3-8V47.8a4,4,0,0,0-8,0v4.4a4,4,0,0,1-4,4H132V33.9h-8V60.2a2.9,2.9,0,0,1-2.9,2.9h0a11,11,0,0,0-10.2,7A12,12,0,0,0,100,82v.2a4,4,0,0,1-4,4H94.9a12,12,0,0,0-12,12v11.1a4,4,0,0,0,8,0V98.2a4,4,0,0,1,4-4H96a12,12,0,0,0,12-12V82a4,4,0,0,1,2.2-3.6v1.3a11,11,0,0,0,10.9,11,2.8,2.8,0,0,1,2.9,2.9h0v12.1a10.9,10.9,0,0,0,10.9,10.9,2.9,2.9,0,0,1,2.9,2.9h0v5.8a2.9,2.9,0,0,1-2.9,2.9,10.7,10.7,0,0,0-10.1,6.9h-2.6a4,4,0,0,1-4-4v-.7a4,4,0,0,0-8,0v.7a12.2,12.2,0,0,0,3,8,12.2,12.2,0,0,0-3,8v4.4a4,4,0,0,0,8,0v-4.4a4,4,0,0,1,4-4H124v22.3a.7.7,0,0,0,.1.5h7.8a.7.7,0,0,0,.1-.5V139.1a2.9,2.9,0,0,1,2.9-2.9,11,11,0,0,0,10.2-7,12.1,12.1,0,0,0,10.9-12V117a4,4,0,0,1,4-4h1.1a12,12,0,0,0,12-12V90A4,4,0,0,0,169.1,86Z" transform="translate(-23 -2.5)" fill="#ffc444"/>
    <path d="M174.7,131a3.7,3.7,0,0,0-2.3-.7H154.3a12,12,0,0,0-12,12v4.4a4,4,0,0,0,8,0v-4.4a4,4,0,0,1,4-4h15.3C171.2,135.9,172.9,133.4,174.7,131Z" transform="translate(-23 -2.5)" fill="#ffc444"/>
    <path d="M186.3,78.1h-9.2a4,4,0,0,1-4-4V71.3a4,4,0,1,0-8,0v2.8a12,12,0,0,0,12,12h9.2Z" transform="translate(-23 -2.5)" fill="#ffc444"/>
    <path d="M156,42.4l-.7-.4a1.9,1.9,0,0,0-.1.8V75.4a4,4,0,0,1-4,4H139.6a4,4,0,0,0,0,8h5.8V97.7a4,4,0,1,0,8,0V87.2a12.3,12.3,0,0,0,9.9-11.8V45.9C160.8,44.9,158.5,43.5,156,42.4Z" transform="translate(-23 -2.5)" fill="#ffc444"/>
    <path d="M83.6,69a4,4,0,0,1,0-8h18.1a4,4,0,0,0,4-4V52.6a4,4,0,0,1,8,0V57a12,12,0,0,1-12,12Z" transform="translate(-23 -2.5)" fill="#ffc444"/>
    <path d="M78.9,113.2H72.6l-1.3.2c.8,2.6,1.4,5.3,2.3,7.8h5.3a4,4,0,0,1,4,4V128a4,4,0,0,0,8,0v-2.8a12,12,0,0,0-12-12Z" transform="translate(-23 -2.5)" fill="#ffc444"/>
    <path d="M116.4,111.9h-5.8V101.6a4,4,0,0,0-8,0v10.5a12.1,12.1,0,0,0-9.8,11.8v20.5h.1c2.4,1,4.7,2.1,7,3.3a4.5,4.5,0,0,0,.9-2.5V123.9a4,4,0,0,1,4-4h11.6a4,4,0,0,0,0-8Z" transform="translate(-23 -2.5)" fill="#ffc444"/>
    <path d="M152,167.4H104a2,2,0,0,1-2-2v-9a10,10,0,0,0-5-8.7A62,62,0,0,1,128,32h2.9a62.2,62.2,0,0,1,59,59h0A61.7,61.7,0,0,1,159,147.7a10,10,0,0,0-5,8.7v9A2,2,0,0,1,152,167.4Zm-46-4h44v-7.1a14.2,14.2,0,0,1,7-12.1,57.8,57.8,0,0,0,28.9-53h0a58,58,0,0,0-115.8,0A26.2,26.2,0,0,0,70,94a58.1,58.1,0,0,0,29,50.2,14.2,14.2,0,0,1,7,12.2Z" transform="translate(-23 -2.5)" fill="#2fb1ea"/>
    <path d="M169.1,88a2,2,0,0,0-2,2v11.1a6,6,0,0,1-6,6H160a10,10,0,0,0-10,10v.2a6,6,0,0,1-6,6h-.2v-3.8a8.9,8.9,0,0,0-8.9-8.9,4.9,4.9,0,0,1-4.9-4.9V93.6a8.9,8.9,0,0,0-8.9-8.9,4.9,4.9,0,0,1-4.9-4.9V74a4.9,4.9,0,0,1,4.9-4.9,9.1,9.1,0,0,0,8.7-6.9h4a6,6,0,0,1,6,6v.7a2,2,0,0,0,4,0v-.7a10,10,0,0,0-4-8,10.1,10.1,0,0,0,4-8V47.8a2,2,0,0,0-4,0v4.4a6,6,0,0,1-6,6H130V33.9a1.9,1.9,0,0,0-.2-.8h-3.6a1.9,1.9,0,0,0-.2.8V60.2a4.9,4.9,0,0,1-4.9,4.9,9,9,0,0,0-8.7,6.9H112a10,10,0,0,0-10,10v.2a6,6,0,0,1-6,6H94.9a10,10,0,0,0-10,10v11.1a2,2,0,0,0,4,0V98.2a6,6,0,0,1,6-6H96a10,10,0,0,0,10-10V82a6,6,0,0,1,6-6h.2v3.7a8.9,8.9,0,0,0,8.9,8.9,5.1,5.1,0,0,1,4.9,5h0v12.1a8.9,8.9,0,0,0,8.9,8.9,4.9,4.9,0,0,1,4.9,4.9v5.8a4.9,4.9,0,0,1-4.9,4.9,9.1,9.1,0,0,0-8.7,6.9h-4a6,6,0,0,1-6-6v-.7a2,2,0,0,0-4,0v.7a10.1,10.1,0,0,0,4,8,10.1,10.1,0,0,0-4,8v4.4a2,2,0,0,0,4,0v-4.4a6,6,0,0,1,6-6H126v24.3a2,2,0,0,0,4,0V139.1a4.9,4.9,0,0,1,4.9-4.9,8.9,8.9,0,0,0,8.7-6.9h.4a10,10,0,0,0,10-10v-.2a6,6,0,0,1,6-6h1.1a9.9,9.9,0,0,0,10-10V90A2,2,0,0,0,169.1,88Z" transform="translate(-23 -2.5)" fill="#2fb1ea"/>
    <path d="M172.4,132.3H154.3a10,10,0,0,0-10,10v4.4a2,2,0,0,0,4,0v-4.4a6,6,0,0,1,6-6h18.1a2,2,0,1,0,0-4Z" transform="translate(-23 -2.5)" fill="#2fb1ea"/>
    <path d="M186.8,80.1h-9.7a6,6,0,0,1-6-6V71.3a2,2,0,1,0-4,0v2.8a10,10,0,0,0,10,10h9.7a2,2,0,0,0,0-4Z" transform="translate(-23 -2.5)" fill="#2fb1ea"/>
    <path d="M137.6,83.4a2,2,0,0,0,2,2h7.8V97.7a2,2,0,1,0,4,0V85.4a10.1,10.1,0,0,0,9.9-10V42.8a2,2,0,0,0-2-2,1.9,1.9,0,0,0-2,2V75.4a6,6,0,0,1-6,6H139.6A2,2,0,0,0,137.6,83.4Z" transform="translate(-23 -2.5)" fill="#2fb1ea"/>
    <path d="M83.6,67h18.1a10,10,0,0,0,10-10V52.6a2,2,0,0,0-4,0V57a6,6,0,0,1-6,6H83.6a2,2,0,0,0,0,4Z" transform="translate(-23 -2.5)" fill="#2fb1ea"/>
    <path d="M78.9,115.2H72.6a2,2,0,0,0,0,4h6.3a6,6,0,0,1,6,6V128a2,2,0,0,0,4,0v-2.8a10,10,0,0,0-10-10Z" transform="translate(-23 -2.5)" fill="#2fb1ea"/>
    <path d="M118.4,115.9a2,2,0,0,0-2-2h-7.8V101.6a2,2,0,0,0-4,0v12.3a10,10,0,0,0-9.8,10v21.3a2,2,0,0,0,4,0V123.9a6,6,0,0,1,6-6h11.6A2,2,0,0,0,118.4,115.9Z" transform="translate(-23 -2.5)" fill="#2fb1ea"/>
    <circle cx="106" cy="5" r="5" fill="#d4ffd4"/>
    <circle cx="62" cy="208" r="4" fill="#d4ffd4"/>
    <circle cx="13" cy="63" r="3" fill="#d4ffd4"/>
    <circle cx="179" cy="105" r="2" fill="#d4ffd4"/>
    <circle cx="175" cy="175" r="1" fill="#d4ffd4"/>
    <circle cx="152" cy="219" r="5" fill="#ffbdbd"/>
    <circle cx="164" cy="171" r="4" fill="#ffbdbd"/>
    <circle cx="34" cy="148" r="3" fill="#ffbdbd"/>
    <circle cx="183" cy="16" r="2" fill="#ffbdbd"/>
    <circle cx="87" cy="17" r="1" fill="#ffbdbd"/>
    <circle cx="5" cy="103" r="5" fill="#bbf1ff"/>
    <circle cx="109" cy="247" r="4" fill="#bbf1ff"/>
    <circle cx="192" cy="123" r="3" fill="#bbf1ff"/>
    <circle cx="177" cy="78" r="2" fill="#bbf1ff"/>
    <circle cx="8" cy="211" r="1" fill="#bbf1ff"/>
    <circle cx="54" cy="39" r="5" fill="#fff4c5"/>
    <circle cx="174" cy="49" r="4" fill="#fff4c5"/>
    <circle cx="43" cy="171" r="3" fill="#fff4c5"/>
    <circle cx="31" cy="112" r="2" fill="#fff4c5"/>
    <circle cx="209" cy="202" r="1" fill="#fff4c5"/>
  </g>
</svg>
