<svg id="Layer_1" data-name="Layer 1" xmlns="http://www.w3.org/2000/svg" viewBox="0 0 87.4 87.4">
  <title>target</title>
  <path d="M37.1,25.4c-8.3,3.2-40.2,31-13,54.6s46.3,9.6,56.6.5,6.4-35.1-4.9-48.9S45.5,22.2,37.1,25.4Z" transform="translate(-6.3 -6.3)" fill="#51c0ff"/>
  <path d="M73.5,43.3a2,2,0,0,0-1.1,2.9,30.8,30.8,0,0,1,2,11.2A31.9,31.9,0,1,1,42.6,25.6a38.5,38.5,0,0,1,10,1.5,2.2,2.2,0,0,0,1.2-4.2,35.4,35.4,0,0,0-11.2-1.7A36.3,36.3,0,1,0,78.9,57.4a37.8,37.8,0,0,0-2.4-12.9C76.2,43.6,74.7,43,73.5,43.3ZM42.6,50.1a2.3,2.3,0,0,0,2.3-2.4,2.2,2.2,0,0,0-2.3-2.4A11.8,11.8,0,1,0,54.4,57.1,2.3,2.3,0,0,0,52,54.8c-1.5,0-2.1,1.5-2.1,2.6a7.4,7.4,0,1,1-7.3-7.3ZM53.5,38.6a2.2,2.2,0,0,0-1.2-3,21.8,21.8,0,0,0-9.7-2.1,24.1,24.1,0,1,0,0,48.1A24.3,24.3,0,0,0,66.8,57.4a20.9,20.9,0,0,0-2.1-9.7,2.2,2.2,0,0,0-3-1.2,2.5,2.5,0,0,0-1.1,3,20.4,20.4,0,0,1,1.7,7.9A19.8,19.8,0,1,1,42.6,37.7a18.3,18.3,0,0,1,7.9,1.7A2.4,2.4,0,0,0,53.5,38.6ZM93.6,23.8a1.9,1.9,0,0,0-1.8-1.5l-12.1-2-2-12.1a1.9,1.9,0,0,0-1.5-1.8,2.3,2.3,0,0,0-2.4.6L59.4,21.4a1.9,1.9,0,0,0-.6,2.1l2.4,12.4L42.6,54.5h-.3a3.3,3.3,0,1,0,3.2,3.2h0L64.4,38.8l12.1,2.4h.3a2.3,2.3,0,0,0,1.5-.6L92.7,26.2A2,2,0,0,0,93.6,23.8Zm-30.1-.3L74.1,12.9l1.5,8.3L65.3,31.5Zm13,13-8-1.5L78.9,24.7l7.9,1.5Z" transform="translate(-6.3 -6.3)" fill="#262324"/>
</svg>
